HIERARCHY
ROOT ground_pelvis
{
  OFFSET 0.0 0.0 0.0
  CHANNELS 6 XPOSITION YPOSITION ZPOSITION ZROTATION XROTATION YROTATION 
  JOINT hip_r
  {
    OFFSET -0.0707 -0.0661 0.0835
    CHANNELS 3 ZROTATION XROTATION YROTATION 
    JOINT knee_r
    {
      OFFSET 0.0 -0.396 0.0
      CHANNELS 3 ZROTATION XROTATION YROTATION 
      JOINT ankle_r
      {
        OFFSET 0.0 -0.43 0.0
        CHANNELS 3 ZROTATION XROTATION YROTATION 
        JOINT mtp_r
        {
          OFFSET 0.13003 -0.04395 0.009
          CHANNELS 3 ZROTATION XROTATION YROTATION 
          End Site
          {
            OFFSET 0.0692 0.012 -0.035
          }
        }
      }
    }
  }
  JOINT hip_l
  {
    OFFSET -0.0707 -0.0661 -0.0835
    CHANNELS 3 ZROTATION XROTATION YROTATION 
    JOINT knee_l
    {
      OFFSET 0.0 -0.396 0.0
      CHANNELS 3 ZROTATION XROTATION YROTATION 
      JOINT ankle_l
      {
        OFFSET 0.0 -0.43 0.0
        CHANNELS 3 ZROTATION XROTATION YROTATION 
        JOINT mtp_l
        {
          OFFSET 0.13003 -0.04395 -0.009
          CHANNELS 3 ZROTATION XROTATION YROTATION 
          End Site
          {
            OFFSET 0.0692 0.012 0.035
          }
        }
      }
    }
  }
  JOINT back
  {
    OFFSET -0.1007 0.0815 0.0
    CHANNELS 3 ZROTATION XROTATION YROTATION 
    JOINT shoulder_r
    {
      OFFSET 0.0031 0.3715 0.17
      CHANNELS 3 ZROTATION XROTATION YROTATION 
      JOINT elbow_r
      {
        OFFSET 0.0061 -0.2904 -0.0123
        CHANNELS 3 ZROTATION XROTATION YROTATION 
        JOINT radioulnar_r
        {
          OFFSET 0.0004 -0.011503 0.019999
          CHANNELS 3 ZROTATION XROTATION YROTATION 
          JOINT radius_hand_r
          {
            OFFSET 0.018 -0.242 0.025
            CHANNELS 3 ZROTATION XROTATION YROTATION 
            End Site
            {
              OFFSET 0.0 -0.13619 0.0
            }
          }
        }
      }
    }
    JOINT shoulder_l
    {
      OFFSET 0.0031 0.3715 -0.17
      CHANNELS 3 ZROTATION XROTATION YROTATION 
      JOINT elbow_l
      {
        OFFSET 0.0061 -0.2904 0.0123
        CHANNELS 3 ZROTATION XROTATION YROTATION 
        JOINT radioulnar_l
        {
          OFFSET 0.0004 -0.011503 -0.019999
          CHANNELS 3 ZROTATION XROTATION YROTATION 
          JOINT radius_hand_l
          {
            OFFSET 0.018 -0.242 -0.025
            CHANNELS 3 ZROTATION XROTATION YROTATION 
            End Site
            {
              OFFSET 0.0 -0.13619 0.0
            }
          }
        }
      }
    }
  }
}
MOTION
Frames: 7
Frame Time: 0.033333
0.181320230336 0.831743859115 0.043416883476 -6.97788987638 6.59994989639 -175.796993462 28.7093204779 5.09988069899 -40.0697282376 -48.3521112478 -15.3679461231 -7.06397715379 17.40656293 1.41992589212 9.25599659431 -0 0.0 -0 -15.3420511684 6.91656459603 -40.126466619 -47.4956840731 -31.5208927177 -14.236974372 10.4257868718 5.14131390715 52.4038921616 -0 0.0 -0 -4.82378865792 10.3765873116 -31.3170525521 -55.4958778177 -4.83424525066 -4.22762882971 -0 0.0 -0 66.0855431258 -11.5365668761 13.5077663008 -0 0.0 -0 97.7323777016 19.2077930971 -24.061439927 -0 0.0 -0 8.58176130058 -14.8656062002 -0.885461775297 -0 0.0 -0 
0.150915947 0.836912871739 0.0393265045907 -6.69495996218 6.82736019104 -175.305301804 26.1869179571 5.63650987906 -40.9650533397 -47.4306675024 -15.1564407777 -6.82141493825 19.3360879554 1.5894722115 9.31018304632 -0 0.0 -0 -6.80724827214 7.57170011952 -41.4231985235 -62.8503693839 -36.51047568 -22.8702942093 8.27243313213 4.42980797867 56.2780847418 -0 0.0 -0 -5.65019032108 12.2774306652 -30.5922704434 -47.5319865285 -4.30222516762 -3.30205644835 -0 0.0 -0 65.2784333319 -14.4764425119 14.8316499148 -0 0.0 -0 98.1596606757 18.1081821596 -23.0520011469 -0 0.0 -0 8.8948648561 -15.5276700968 -0.874889976483 -0 0.0 -0 
0.121009881882 0.846483003946 0.0363163062749 -6.80315015864 6.52865979693 -175.322295314 22.7670354095 5.91835976959 -41.0641867053 -45.5285895921 -14.7066916039 -6.33126989124 20.1741453364 1.79336178924 10.0559790858 -0 0.0 -0 0.91224774951 6.95754445039 -42.883236836 -76.7918578196 -39.0039557648 -31.4353172776 9.89731379134 5.46614788568 57.7385533562 -0 0.0 -0 -7.58670604513 14.2302338291 -27.5355251483 -36.7657164342 -5.83618277548 -3.05524734924 -0 0.0 -0 64.2595603531 -13.8307787532 14.2097961955 -0 0.0 -0 97.2576249128 17.3697311349 -21.9157086785 -0 0.0 -0 9.94738249305 -16.9476698404 -0.821630722657 -0 0.0 -0 
0.0912927461894 0.856866709569 0.0336728758377 -7.22788034953 5.95193996776 -176.152805336 18.765596405 6.63507926684 -39.277610709 -43.0617677356 -14.0975027629 -5.71761111837 21.2723321794 1.85898944843 9.87520959164 -0 0.0 -0 7.98418719633 5.6762398088 -43.6229702288 -88.3025160806 -39.7448810256 -38.7523657467 12.5729140402 6.74611124888 56.2955700261 -0 0.0 -0 -10.7102411988 15.5132003411 -21.9927088161 -24.0982204957 -9.61822030902 -2.89568260429 -0 0.0 -0 62.6113674045 -10.0841638614 11.9034487798 -0 0.0 -0 95.0398010175 16.4899464207 -20.2001000552 -0 0.0 -0 11.0637017808 -19.2114387106 -0.718110881492 -0 0.0 -0 
0.0614593722195 0.865562695154 0.0319107472646 -7.77081123288 5.25421010394 -177.27799704 14.5790524438 7.43940960058 -36.0985879523 -40.4453715665 -13.4202604784 -5.09522336375 22.4918385501 1.63885981528 8.22856282709 -0 0.0 -0 14.9274381952 4.0531051167 -43.9536709129 -97.0305211228 -39.5447906339 -44.3274632605 14.7513303052 7.69099022715 54.8832542454 -0 0.0 -0 -14.1404723368 15.3762874916 -15.10389784 -10.6329063819 -14.7536047582 -1.96916039974 -0 0.0 -0 60.5865168439 -5.12580212066 9.07443906712 -0 0.0 -0 90.7099255366 15.2245719147 -17.5503025535 -0 0.0 -0 12.4633091408 -21.9656151632 -0.524678376733 -0 0.0 -0 
0.0312599431528 0.873097180169 0.031100918819 -8.48248962364 4.53244992708 -178.4796049 10.2637901526 7.8041792683 -33.0011586354 -37.9272549893 -12.739204387 -4.52525901855 23.2076133468 1.40193912255 6.8196898886 -0 0.0 -0 21.4374195592 2.28831443565 -43.9140728912 -102.370554261 -39.0969795262 -47.7127406547 16.886133251 8.83494702161 54.9891119322 -0 0.0 -0 -16.5850824181 13.7384081287 -8.20822679261 2.63903931344 -20.1858727712 0.0974969216575 -0 0.0 -0 58.4406763123 -0.755585674869 6.69683655666 -0 0.0 -0 83.2532714159 13.9660164988 -14.370456759 -0 0.0 -0 14.3850306751 -24.5121555726 -0.206743462895 -0 0.0 -0 
0.000325453984915 0.879611177521 0.0304027791895 -9.36019966784 3.89989970475 -179.953505081 5.677781724 7.71237469566 -30.4435225837 -35.4581552647 -12.0445920777 -3.99530976349 23.7852800109 1.38624420161 6.57548501256 -0 0.0 -0 27.0960383337 0.921913747846 -43.3447219824 -103.878680521 -38.9249782874 -48.6620925531 19.100084429 10.0409987734 55.1438874339 -0 0.0 -0 -17.2601509949 11.3164017046 -1.98545659077 15.4744970741 -25.1115610213 3.28590454506 -0 0.0 -0 55.9683083422 2.34115704794 5.02868238019 -0 0.0 -0 72.051938762 13.4895954362 -11.4366719444 -0 0.0 -0 16.5092160919 -26.1503422941 0.166273298062 -0 0.0 -0 
